<svg xmlns="http://www.w3.org/2000/svg" viewBox="0 0 512 512" width="512" height="512">
  <defs>
    <linearGradient id="scy" x1="0.15" y1="0" x2="0.5" y2="1">
      <stop offset="0" stop-color="#6fe3cf"/>
      <stop offset="0.55" stop-color="#22b79b"/>
      <stop offset="1" stop-color="#0c8f77"/>
    </linearGradient>
    <clipPath id="rod">
      <rect x="128" y="210" width="256" height="92" rx="46"/>
    </clipPath>
  </defs>
  <rect width="512" height="512" rx="116" fill="#0a0e13"/>
  <g transform="rotate(-30 256 256)">
    <path d="M 374 214 Q 424 192, 480 152 L 496 180 Q 440 218, 392 240 Z" fill="url(#scy)"/>
    <rect x="128" y="210" width="256" height="92" rx="46" fill="#0c3f38"/>
    <g clip-path="url(#rod)">
      <polygon points="94.5,302 113.5,302 140.5,210 121.5,210" fill="url(#scy)"/>
      <polygon points="128.5,302 147.5,302 174.5,210 155.5,210" fill="url(#scy)"/>
      <polygon points="162.5,302 181.5,302 208.5,210 189.5,210" fill="url(#scy)"/>
      <polygon points="196.5,302 215.5,302 242.5,210 223.5,210" fill="url(#scy)"/>
      <polygon points="230.5,302 249.5,302 276.5,210 257.5,210" fill="url(#scy)"/>
      <polygon points="264.5,302 283.5,302 310.5,210 291.5,210" fill="url(#scy)"/>
      <polygon points="298.5,302 317.5,302 344.5,210 325.5,210" fill="url(#scy)"/>
      <polygon points="332.5,302 351.5,302 378.5,210 359.5,210" fill="url(#scy)"/>
      <polygon points="366.5,302 385.5,302 412.5,210 393.5,210" fill="url(#scy)"/>
    </g>
    <rect x="138" y="218" width="236" height="9" rx="4.5" fill="#eafff9" opacity="0.14" clip-path="url(#rod)"/>
    <rect x="128" y="210" width="256" height="92" rx="46" fill="none" stroke="#6fe3cf" stroke-width="4" opacity="0.22"/>
  </g>
</svg>
