<svg xmlns="http://www.w3.org/2000/svg" viewBox="0 0 512 512" width="512" height="512">
  <defs>
    <linearGradient id="scy" x1="0.15" y1="0" x2="0.5" y2="1">
      <stop offset="0" stop-color="#6fe3cf"/>
      <stop offset="0.55" stop-color="#22b79b"/>
      <stop offset="1" stop-color="#0c8f77"/>
    </linearGradient>
  </defs>
  <rect width="512" height="512" rx="116" fill="#0a0e13"/>
  <path d="M 367.637 90.270 C 353.228 96.440, 336.076 101.716, 309.500 108.153 C 250.307 122.489, 242.896 124.388, 231.500 128.138 C 206.436 136.387, 185.479 148.899, 177.081 160.626 C 169.300 171.492, 168.635 176.532, 170.331 211.750 L 171.161 229 158.126 229 L 145.091 229 147.403 231.313 C 150.624 234.533, 153.500 242.685, 158.509 262.786 C 160.878 272.293, 163.543 281.180, 164.431 282.536 L 166.046 285 185.467 285 L 204.888 285 203.014 280.750 C 201.983 278.413, 199.516 269.975, 197.530 262 C 195.545 254.025, 193.209 245.310, 192.341 242.633 C 191.020 238.561, 190.984 237.628, 192.122 236.924 C 194.363 235.539, 193.857 234.128, 205.099 273.120 C 206.148 276.760, 207.938 280.923, 209.076 282.370 L 211.145 285 230.966 285 C 248.117 285, 250.868 284.787, 251.393 283.418 C 252.435 280.704, 252.077 280, 249.658 280 C 247.572 280, 247.009 278.988, 244.518 270.750 C 242.980 265.663, 240.044 255.982, 237.995 249.239 C 235.806 242.039, 234.814 237.430, 235.590 238.075 C 236.317 238.678, 237.334 238.912, 237.850 238.593 C 239.010 237.876, 240.317 242.678, 239.376 244.200 C 238.999 244.810, 239.131 245.037, 239.669 244.704 C 240.226 244.360, 243.151 251.729, 246.455 261.800 C 249.650 271.535, 253.135 280.738, 254.200 282.250 L 256.136 285 276.033 285 C 295.215 285, 295.970 284.925, 297.052 282.902 L 298.175 280.805 299.644 282.902 C 301.049 284.908, 301.951 285, 320.164 285 C 337.920 285, 339.164 284.881, 338.481 283.250 C 338.077 282.288, 336.438 277, 334.837 271.500 C 325.847 240.604, 323.572 233.830, 321.400 231.487 L 319.095 229 299.104 229 C 279.937 229, 279.053 229.086, 277.644 231.098 L 276.175 233.195 275.052 231.098 C 273.970 229.075, 273.215 229, 254.015 229 C 236.114 229, 233.993 229.177, 233.050 230.750 C 232.050 232.417, 231.950 232.417, 230.950 230.750 C 229.443 228.237, 190.624 228.063, 189.225 230.563 C 188.431 231.981, 188.229 231.981, 187.052 230.563 C 186.164 229.492, 184.023 229, 180.253 229 L 174.750 229 175.386 225.821 C 177.037 217.566, 188.626 205.275, 202.068 197.521 C 220.966 186.621, 244.932 179.156, 292 169.507 C 319.827 163.803, 333.440 160.509, 342.500 157.285 C 353.013 153.545, 366.411 146.194, 372.065 141.063 L 377.094 136.500 376.797 111.488 L 376.500 86.475 367.637 90.270 M 326.972 231.947 C 327.545 233.018, 328.109 235.043, 328.225 236.447 C 328.341 237.851, 328.722 239, 329.072 239 C 329.754 239, 335.228 255.822, 339.322 270.500 C 343.779 286.482, 342.354 295.169, 333.727 304.609 C 324.196 315.037, 310.447 322.780, 289 329.797 C 275.512 334.210, 271.383 335.167, 232.379 342.926 C 184.831 352.384, 168.436 358.173, 153.364 370.830 L 146.500 376.595 146.233 402.386 C 146.086 416.572, 146.311 428.019, 146.733 427.824 C 147.155 427.629, 152.675 424.924, 159 421.813 C 178.806 412.073, 193.964 407.418, 241.500 396.476 C 286.176 386.192, 302.369 380.959, 317.732 371.840 C 326.281 366.766, 336.161 357.020, 339.559 350.309 L 342.500 344.500 342.801 314.500 L 343.103 284.500 362.169 284.812 C 372.656 284.983, 381.816 284.901, 382.525 284.629 C 384.501 283.870, 375.081 240.210, 371.331 232.750 L 369.949 230 347.939 230 C 326.439 230, 325.954 230.045, 326.972 231.947 M 117.766 235.876 C 109.343 241.776, 110.883 279, 119.550 279 C 121.581 279, 123.597 275.300, 124.999 269 C 126.433 262.560, 128.019 261, 133.132 261 C 135.195 261, 137.160 260.550, 137.500 260 C 137.840 259.450, 139.044 259, 140.177 259 C 143.663 259, 150.004 251.798, 149.978 247.868 C 149.953 244.085, 146.919 236.696, 144.854 235.391 C 142.500 233.903, 120.008 234.306, 117.766 235.876 M 378.371 236.475 C 378.060 237.286, 378.749 239.476, 379.903 241.343 C 381.056 243.209, 382 245.398, 382 246.208 C 382 248.186, 385.540 249.674, 392.240 250.511 C 396.474 251.040, 398.052 251.712, 398.913 253.352 C 399.810 255.059, 399.926 254.086, 399.480 248.621 C 398.907 241.604, 397.046 236.515, 394.777 235.759 C 394.081 235.527, 391.967 235.811, 390.080 236.390 C 387.488 237.186, 386.548 237.145, 386.241 236.222 C 385.652 234.457, 379.064 234.669, 378.371 236.475 M 285.381 257.670 C 292.304 278.433, 292.790 279.515, 295.330 279.816 L 298 280.133 291.909 262.816 C 288.559 253.292, 285.142 243.587, 284.315 241.249 C 283.488 238.911, 282.384 237.263, 281.862 237.585 C 281.340 237.908, 280.280 237.647, 279.507 237.006 C 278.734 236.364, 281.377 245.663, 285.381 257.670" fill="url(#scy)"/>
</svg>